<?xml version="1.0" encoding="utf-8"?>
<!-- Generator: Adobe Illustrator 26.0.3, SVG Export Plug-In . SVG Version: 6.00 Build 0)  -->
<svg version="1.1" id="Layer_1" xmlns="http://www.w3.org/2000/svg" xmlns:xlink="http://www.w3.org/1999/xlink" x="0px" y="0px"
	 viewBox="0 0 200 200" style="enable-background:new 0 0 200 200;" xml:space="preserve">
<path d="M45.6,186.2c12.7,3,26.8,0.2,34.9-9.2c6.5-7.6,8.3-18.3,11.4-28c3.1-9.7,8.6-19.8,18.5-22.3c4.9-1.2,10.3-0.4,15.4-0.8
	c5.1-0.4,10.6-2.6,12.1-7.5c1.7-5.4-2.7-11.5-8-14c-5.3-2.5-11.3-2.3-17.1-2c-5.7,0.3-11.7,0.5-17.1-2.1c-3.9-1.8-7.1-5-10.3-7.9
	c-3.2-2.9-6.8-5.7-10.9-6.7c-4.2-1-9,0.5-10.5,4.3c-0.9,2.3-0.5,5-0.9,7.4c-1,5.6-6.4,9.2-12,10.7c-5.5,1.4-11.5,1.3-17,2.7
	c-11,2.7-19.7,11.6-22.9,22.4c-3.1,10.8-0.8,23.4,5.8,33.2C23.7,176.4,34.3,183.5,45.6,186.2z M65.1,115.1L65.1,115.1
	c5-5,13.1-5,18.1,0c5,5,5,13.1,0,18.1c-5,5-13.1,5-18.1,0C60.1,128.2,60.1,120.1,65.1,115.1z"/>
<path d="M90.1,89.8c2.6,2.4,5.1,4.6,7.8,5.9c4.3,2.1,9.8,1.8,14.6,1.6c2.2-0.1,4.7-0.2,7.2-0.1l31.1-33.8l-8.4-8.4l-8.4-8.4
	L88.2,88.1c0.2,0.2,0.4,0.4,0.7,0.6C89.3,89.1,89.7,89.5,90.1,89.8z"/>
<path d="M176.2,32.6c-1.1-2.1-2.6-4-4.3-5.7l0,0l0,0c0,0,0,0,0,0l-1.2-1.2l0,0c-1.8-1.8-3.7-3.3-5.9-4.5c-4.8-2.6-7.8-0.4-9.8,3.4
	c-2.2,4.2-4.2,7.7-9.3,8.6c-2.5,0.5-5.1,0.4-7.4,1.4c-0.1,0.1-0.2,0.1-0.3,0.2c-2.5,1.4-2.9,4.9-0.9,6.9l8.6,8.6l0.8,0.8l0,0
	l0.3,0.3l9.1,9.1c2,2,5.5,1.7,6.9-0.9c0.1-0.1,0.1-0.2,0.2-0.3c1-2.3,0.9-4.9,1.4-7.4c1-5.2,4.4-7.1,8.6-9.3
	C176.6,40.5,178.8,37.4,176.2,32.6z"/>
</svg>
