<?xml version="1.0" encoding="utf-8"?>
<!-- Generator: Adobe Illustrator 26.0.3, SVG Export Plug-In . SVG Version: 6.00 Build 0)  -->
<svg version="1.1" id="Layer_1" xmlns="http://www.w3.org/2000/svg" xmlns:xlink="http://www.w3.org/1999/xlink" x="0px" y="0px"
	 viewBox="0 0 200 200" style="enable-background:new 0 0 200 200;" xml:space="preserve">
<path d="M143.1,43.4c5.1-1.2,8.3-6.3,7.1-11.4c0-0.1,0-0.2-0.1-0.3c-0.3-1.6-1.1-3.1-2.2-4.4c-2.4-2.7-5.9-4-9.5-4.4
	c-7.4-0.9-15,2.4-20,8L52.4,46.4C45.5,43.6,37.3,44,31,48.1c-3,1.9-5.6,4.7-6.5,8.2c-0.4,1.6-0.4,3.3,0,4.9c0,0.1,0,0.2,0.1,0.3
	c1.2,5.1,6.3,8.3,11.4,7.1c5.1-1.2,8.3-6.3,7.1-11.4c-0.1-0.2-0.1-0.5-0.2-0.7c4.1-0.1,7.8,2.9,9.7,6.6c2,3.9,2.1,8.5,1.7,12.9
	c-1.3,14.6-7.9,28.7-8.5,43.2c-1.6,8.2-1.8,16.6-0.1,24.7c2.6,12.5,9.9,24.2,20.9,30.6c9.4,5.5,20.8,6.9,31.6,5.8
	c6.6-0.6,13.2-2.1,19.6-3.9c6.6-1.2,13.1-2.8,19.3-5.1c10.2-3.9,19.8-10.1,25.8-19.2c7-10.6,8.3-24.4,5.1-36.7
	c-2.1-8-6-15.5-11-22.1c-7-12.7-19.1-22.4-26.8-34.9c-2.3-3.7-4.2-7.9-4.2-12.3c0-4.1,2.1-8.4,5.8-10.2c0,0.2,0.1,0.5,0.1,0.7
	C132.9,41.4,138,44.6,143.1,43.4z M93.2,158.9c-4-0.9-7.8-2.4-11.3-4.5c-12.4-7.2-20.8-21-21.4-35.3c-0.5-11.7,3.7-23,5.9-34.5
	c2.2-11.5,1.8-24.7-6.3-33.2c-0.4-0.5-0.9-0.9-1.4-1.3l8.6-2L93.2,158.9z M102.8,160.1c-2.1,0-4.1-0.2-6.1-0.5L70.4,47.4l5.7-1.3
	L102.8,160.1z M111.9,159.3c-1.9,0.4-3.9,0.6-5.9,0.7L79.2,45.4l5.7-1.3L111.9,159.3z M120.5,156.7c-1.8,0.8-3.7,1.4-5.6,1.9
	L88,43.3l5.7-1.3L120.5,156.7z M128.8,152.2c-1.7,1.2-3.5,2.2-5.3,3.1L96.8,41.2l5.7-1.3L128.8,152.2z M143.6,99.7
	c5.8,13.1,4.4,29.2-3.6,41.2c-2.3,3.5-5.2,6.6-8.5,9.3l-25.9-111l9-2.1c-0.2,0.6-0.5,1.2-0.6,1.8c-3.5,11.2,2,23.2,9,32.5
	S138.9,89,143.6,99.7z"/>
</svg>
