<?xml version="1.0" encoding="utf-8"?>
<!-- Generator: Adobe Illustrator 24.3.0, SVG Export Plug-In . SVG Version: 6.00 Build 0)  -->
<svg version="1.1" id="Layer_1" xmlns="http://www.w3.org/2000/svg" xmlns:xlink="http://www.w3.org/1999/xlink" x="0px" y="0px"
	 viewBox="0 0 50 50" style="enable-background:new 0 0 50 50;" xml:space="preserve">
<style type="text/css">
	.st0{fill-rule:evenodd;clip-rule:evenodd;fill:#FFFFFF;}
</style>
<g>
	<path class="st0" d="M36,11.52c-0.66,0.03-1.22,0.28-1.68,0.76c-0.46,0.48-0.69,1.05-0.69,1.71c0,0.66,0.23,1.23,0.68,1.71
		c0.46,0.48,1.02,0.74,1.68,0.77c0.66-0.03,1.22-0.28,1.68-0.76c0.46-0.48,0.69-1.05,0.69-1.71c0-0.66-0.23-1.23-0.68-1.71
		C37.22,11.81,36.67,11.55,36,11.52z M25.11,18.13c0.91,0.01,1.78,0.19,2.62,0.55c0.84,0.36,1.57,0.86,2.21,1.51
		c0.64,0.65,1.12,1.4,1.46,2.25c0.34,0.85,0.5,1.72,0.49,2.63c-0.01,0.91-0.19,1.78-0.55,2.62c-0.36,0.84-0.86,1.57-1.51,2.21
		c-0.65,0.64-1.4,1.12-2.25,1.46c-0.85,0.34-1.72,0.5-2.63,0.49c-0.9-0.03-1.75-0.23-2.57-0.6c-0.82-0.37-1.54-0.88-2.15-1.52
		c-0.62-0.65-1.09-1.39-1.42-2.22c-0.33-0.83-0.49-1.7-0.48-2.6c0.01-0.9,0.19-1.76,0.54-2.58c0.35-0.83,0.84-1.56,1.47-2.19
		c0.63-0.63,1.36-1.13,2.19-1.48C23.36,18.32,24.22,18.14,25.11,18.13L25.11,18.13z M25.01,14.42c-1.4,0-2.75,0.27-4.04,0.8
		c-1.3,0.53-2.44,1.3-3.43,2.28c-0.99,0.99-1.76,2.13-2.3,3.42c-0.54,1.29-0.81,2.64-0.82,4.04c0,1.4,0.26,2.75,0.79,4.05
		c0.53,1.3,1.29,2.44,2.28,3.44c0.99,1,2.12,1.76,3.42,2.31c1.29,0.54,2.64,0.82,4.04,0.83c1.4,0.01,2.75-0.25,4.05-0.78
		c1.3-0.53,2.45-1.28,3.44-2.27c1-0.98,1.77-2.12,2.32-3.41c0.55-1.29,0.83-2.64,0.84-4.04c0.01-1.41-0.25-2.77-0.78-4.08
		c-0.53-1.31-1.29-2.46-2.29-3.46c-0.99-1-2.14-1.77-3.44-2.32C27.78,14.69,26.42,14.42,25.01,14.42L25.01,14.42z M29.89,4.39
		c0.03,0.01,0.06,0.02,0.08,0.02c0.87,0.02,1.74,0.04,2.61,0.07C33.5,4.5,34.4,4.55,35.3,4.66c1.07,0.14,2.13,0.39,3.14,0.78
		c2.8,1.09,4.79,3.02,5.98,5.78c0.64,1.51,0.95,3.1,1.03,4.73c0.07,1.42,0.1,2.85,0.14,4.28c0,0.03,0.01,0.07,0.02,0.1v9.32
		c-0.01,0.03-0.02,0.05-0.02,0.08c-0.02,0.93-0.03,1.85-0.07,2.78c-0.04,0.86-0.09,1.73-0.17,2.58c-0.12,1.2-0.41,2.36-0.86,3.48
		c-1.04,2.68-2.88,4.59-5.52,5.74c-1.57,0.71-3.23,1.03-4.94,1.12c-1.42,0.07-2.84,0.1-4.27,0.14c-0.03,0-0.06,0.01-0.09,0.02h-9.36
		c-0.03-0.01-0.05-0.02-0.08-0.02l-3.27-0.09c-1.04-0.02-2.07-0.12-3.09-0.3c-1.27-0.22-2.48-0.63-3.62-1.24
		c-2.22-1.19-3.8-2.96-4.73-5.3c-0.58-1.48-0.91-3.01-0.98-4.59c-0.07-1.22-0.09-2.45-0.14-3.67L4.39,29.9v-9.8
		c0.01-0.03,0.02-0.05,0.02-0.08c0.02-0.68,0.02-1.36,0.04-2.03c0.03-1.04,0.07-2.09,0.19-3.12c0.13-1.09,0.37-2.16,0.76-3.2
		c1.02-2.71,2.83-4.69,5.45-5.93c1.61-0.76,3.33-1.09,5.1-1.2c1.22-0.07,2.45-0.09,3.67-0.13l0.48-0.02H29.89L29.89,4.39z"/>
</g>
</svg>
