<?xml version="1.0" encoding="utf-8"?>
<!-- Generator: Adobe Illustrator 24.3.0, SVG Export Plug-In . SVG Version: 6.00 Build 0)  -->
<svg version="1.1" id="Layer_1" xmlns="http://www.w3.org/2000/svg" xmlns:xlink="http://www.w3.org/1999/xlink" x="0px" y="0px"
	 viewBox="0 0 50 50" style="enable-background:new 0 0 50 50;" xml:space="preserve">
<style type="text/css">
	.st0{fill:#FFFFFF;}
</style>
<g>
	<path class="st0" d="M18.82,26c0-3.49-0.12-6.39-0.22-8.9h7.52l0.41,3.87h0.16c0.95-1.44,2.19-2.57,3.73-3.37
		c1.53-0.8,3.16-1.18,4.89-1.14c5.7,0,9.98,3.81,9.98,12.04V45H36.6V29.55c0-3.59-1.26-6.08-4.4-6.08
		c-1.01,0.02-1.92,0.32-2.74,0.92c-0.81,0.6-1.38,1.37-1.71,2.33c-0.22,0.71-0.32,1.43-0.28,2.17v16.08h-8.66V26 M4.95,17.18h8.68
		V45H4.95V17.18z M13.91,9.35c0,0.61-0.11,1.19-0.35,1.75c-0.24,0.56-0.58,1.04-1.03,1.46c-0.45,0.41-0.96,0.72-1.53,0.92
		c-0.57,0.2-1.16,0.27-1.77,0.22c-0.59,0.03-1.17-0.06-1.72-0.26c-0.56-0.21-1.05-0.52-1.47-0.93c-0.43-0.41-0.75-0.89-0.98-1.44
		c-0.23-0.55-0.34-1.12-0.33-1.71c-0.01-0.6,0.11-1.18,0.34-1.74C5.3,7.06,5.64,6.58,6.08,6.16c0.44-0.41,0.94-0.72,1.51-0.92
		c0.57-0.2,1.15-0.28,1.75-0.23c0.6-0.04,1.18,0.04,1.74,0.25c0.56,0.2,1.06,0.51,1.49,0.92c0.43,0.41,0.77,0.89,1,1.45
		C13.81,8.18,13.92,8.75,13.91,9.35"/>
</g>
</svg>
