<?xml version="1.0" encoding="utf-8"?>
<!-- Generator: Adobe Illustrator 26.0.3, SVG Export Plug-In . SVG Version: 6.00 Build 0)  -->
<svg version="1.1" xmlns="http://www.w3.org/2000/svg" xmlns:xlink="http://www.w3.org/1999/xlink" x="0px" y="0px"
	 viewBox="0 0 200 40" style="enable-background:new 0 0 200 40;" xml:space="preserve">
<style type="text/css">
	.st0{fill:#FFFFFF;}
</style>
<g id="Layer_2">
	<g>
		<path class="st0" d="M10.4,6.4h4.4v24H22v4H10.4V6.4z"/>
		<path class="st0" d="M23.9,6.4h4.4v28h-4.4V6.4z"/>
		<path class="st0" d="M38.1,29.2L38.1,29.2l3.4-22.8h4l-4.3,28h-6.6l-4.3-28h4.4L38.1,29.2z"/>
		<path class="st0" d="M52,18.2h6v4h-6v8.2h7.6v4h-12v-28h12v4H52V18.2z"/>
		<path class="st0" d="M77.8,26.3L77.8,26.3l3-19.9H87v28h-4.2V14.3h-0.1l-3,20.1h-4.2l-3.2-19.8h-0.1v19.8h-3.8v-28h6.1L77.8,26.3z
			"/>
		<path class="st0" d="M94.4,6.4V28c0,2,0.9,2.7,2.3,2.7s2.3-0.7,2.3-2.7V6.4h4.2v21.3c0,4.5-2.2,7-6.6,7c-4.3,0-6.6-2.6-6.6-7V6.4
			H94.4z"/>
		<path class="st0" d="M112,6.1c4.3,0,6.5,2.6,6.5,7V14h-4.2v-1.2c0-2-0.8-2.8-2.2-2.8s-2.2,0.8-2.2,2.8c0,2,0.9,3.6,3.8,6.1
			c3.7,3.2,4.8,5.6,4.8,8.8c0,4.5-2.2,7-6.6,7s-6.6-2.6-6.6-7V26h4.2v2c0,2,0.9,2.7,2.3,2.7c1.4,0,2.3-0.7,2.3-2.7
			c0-2-0.9-3.6-3.8-6.1c-3.7-3.2-4.8-5.6-4.8-8.8C105.5,8.6,107.7,6.1,112,6.1z"/>
		<path class="st0" d="M121,6.4h4.4v28H121V6.4z"/>
		<path class="st0" d="M141.4,24v3.7c0,4.5-2.2,7-6.6,7s-6.6-2.6-6.6-7V13.1c0-4.5,2.2-7,6.6-7s6.6,2.6,6.6,7v2.7h-4.2v-3
			c0-2-0.9-2.8-2.3-2.8c-1.4,0-2.3,0.8-2.3,2.8V28c0,2,0.9,2.7,2.3,2.7c1.4,0,2.3-0.7,2.3-2.7v-4H141.4z"/>
	</g>
</g>
<g id="Layer_1">
	<path class="st0" d="M172,9.7c-0.6,1.4-0.7,2.9-0.4,4.5c0.4,1.6,1.2,2.9,2.3,3.9c0.7,0.7,1.6,1.2,2.5,1.5c1.3,0.5,2.8,0.6,4.4,0.3
		c4.1-0.9,6.7-5,5.8-9.1c-0.9-4.1-5-6.7-9.1-5.8c-1.5,0.3-2.8,1.1-3.8,2.1C172.9,8,172.3,8.8,172,9.7z M185,12.5
		c0.4,0,0.7,0.4,0.6,0.8c-0.2,2.2-1.6,4.3-3.6,5.3c-0.4,0.2-0.8,0-1-0.3c0-0.1,0-0.1-0.1-0.2c-0.1-0.3,0.1-0.6,0.4-0.8
		c1.6-0.8,2.7-2.4,2.8-4.1C184.3,12.7,184.6,12.4,185,12.5z"/>
	<path class="st0" d="M155.2,24.8c-1.5,0.3-3-0.6-3.4-2.1c-0.3-1.5,0.6-3,2.1-3.4l0.5-0.1c0.8,1,2.2,1.5,3.8,1.4l14.4-1.3
		c-1.3-1.2-2.3-2.9-2.7-4.8s-0.2-3.8,0.5-5.5l-13.6,5c-1.5,0.6-2.6,1.7-2.8,2.9l-0.5,0.1c-2.7,0.6-4.5,3.3-3.9,6.1
		c0.6,2.7,3.3,4.5,6.1,3.9l16-3.6c1.5-0.3,3,0.6,3.4,2.1l0,0.1c0.3,1.5-0.6,3-2.1,3.4l-3.9,0.9l-0.1-0.6l-6,1.3l0.1,0.5l-1.3,0.4
		l0-0.1c0-0.1-0.2-0.2-0.3-0.2l-0.2,0c-0.1,0-0.2,0.2-0.2,0.3l0,0.2l-1.3,0.4c-0.6,0.2-1,0.7-1,1.1c0.1,0.4,0.6,0.6,1.3,0.6l1.3-0.2
		l0,0.2c0,0.1,0.2,0.2,0.3,0.2l0.2,0c0.1,0,0.2-0.2,0.2-0.3l0-0.1l1.4-0.2l0.1,0.5l6-1.3l-0.1-0.6l3.9-0.9c2.7-0.6,4.5-3.3,3.9-6.1
		l0-0.1c-0.6-2.7-3.3-4.5-6.1-3.9L155.2,24.8z M163.3,14.6l2.2-0.5c0.8-0.2,1.5,0.3,1.7,1.1l0,0c0.2,0.8-0.3,1.5-1.1,1.7l-2.2,0.5
		c-0.8,0.2-1.5-0.3-1.7-1.1l0,0C162.1,15.6,162.6,14.8,163.3,14.6z"/>
</g>
</svg>
