<?xml version="1.0" encoding="utf-8"?>
<!-- Generator: Adobe Illustrator 26.0.3, SVG Export Plug-In . SVG Version: 6.00 Build 0)  -->
<svg version="1.1" xmlns="http://www.w3.org/2000/svg" xmlns:xlink="http://www.w3.org/1999/xlink" x="0px" y="0px"
	 viewBox="0 0 20 24" style="enable-background:new 0 0 20 24;" xml:space="preserve">
<style type="text/css">
	.st0{fill:#FFFFFF;}
	.st1{display:none;}
</style>
<g id="Layer_1">
	<g id="State:EnabledDeactivatedNoHighlight">
		<g>
			<g>
				<g>
					<path class="st0" d="M16,9.1c0.5,0,0.9,0.2,1.2,0.5c0.3,0.3,0.6,0.8,0.6,1.2v9.2c0,0.5-0.2,0.9-0.6,1.2
						c-0.3,0.3-0.8,0.5-1.2,0.5H5.1c-0.5,0-0.9-0.2-1.2-0.5c-0.5-0.3-0.6-0.8-0.6-1.2v-9.2c0-0.5,0.2-0.9,0.6-1.2
						c0.3-0.3,0.8-0.5,1.2-0.5H6V7.3C6,6,6.5,4.9,7.4,4s2-1.4,3.3-1.4S13,3.1,14,4s1.4,2,1.4,3.3v1.9H16z M13.3,9.1V7.3
						c0-0.8-0.3-1.4-0.8-2c-0.5-0.6-1.2-0.8-2-0.8c-0.8,0-1.4,0.3-2,0.8c-0.6,0.5-0.8,1.2-0.8,2v1.9H13.3z M9.3,16.8
						c0.3,0.3,0.8,0.5,1.2,0.5c0.5,0,0.9-0.2,1.2-0.6c0.3-0.3,0.6-0.8,0.6-1.2c0-0.5-0.2-0.9-0.6-1.2c-0.3-0.3-0.8-0.6-1.2-0.6
						c-0.5,0-0.9,0.2-1.2,0.6c-0.3,0.3-0.6,0.8-0.6,1.2C8.6,16,8.8,16.3,9.3,16.8z"/>
				</g>
			</g>
		</g>
	</g>
</g>
<g id="Layer_2" class="st1">
</g>
</svg>
