<?xml version="1.0" encoding="utf-8"?>
<!-- Generator: Adobe Illustrator 26.0.3, SVG Export Plug-In . SVG Version: 6.00 Build 0)  -->
<svg version="1.1" id="Layer_1" xmlns="http://www.w3.org/2000/svg" xmlns:xlink="http://www.w3.org/1999/xlink" x="0px" y="0px"
	 viewBox="0 0 200 200" style="enable-background:new 0 0 200 200;" xml:space="preserve">
<path d="M189.2,100c0-48.6-39.4-88-88-88c-48.6,0-88,39.4-88,88s39.4,88,88,88C149.8,188,189.2,148.6,189.2,100z M106.3,22.9
	c0.3-2.4,2.5-4.2,5-3.9c22.4,2.7,42.8,14.8,56.1,33.2c8,11.1,13.1,24,14.9,37.5c0.3,2.4-1.4,4.7-3.9,5c-0.2,0-0.4,0-0.6,0
	c-2.2,0-4.1-1.6-4.4-3.9c-1.5-12-6.1-23.5-13.2-33.4c-11.8-16.3-30-27.1-50-29.5C107.7,27.5,106,25.3,106.3,22.9z M71.6,100
	c0-16.3,13.2-29.6,29.6-29.6c16.3,0,29.6,13.2,29.6,29.6s-13.2,29.6-29.6,29.6C84.9,129.6,71.6,116.3,71.6,100z"/>
</svg>
