<?xml version="1.0" encoding="utf-8"?>
<!-- Generator: Adobe Illustrator 26.0.3, SVG Export Plug-In . SVG Version: 6.00 Build 0)  -->
<svg version="1.1" xmlns="http://www.w3.org/2000/svg" xmlns:xlink="http://www.w3.org/1999/xlink" x="0px" y="0px"
	 viewBox="0 0 480 480" style="enable-background:new 0 0 480 480;" xml:space="preserve">
<style type="text/css">
	.st0{fill:#08F986;}
	.st1{fill:none;stroke:#08F986;stroke-width:12;stroke-linecap:round;stroke-miterlimit:10;}
</style>
<g id="Layer_1">
	<path class="st0" d="M15.9,169.2v149.6c0,19.1,15.5,34.5,34.5,34.5h53.6V134.7H50.4C31.4,134.7,15.9,150.2,15.9,169.2z"/>
	<polygon class="st0" points="141,134.7 141,353.3 169.5,353.3 322.9,436.9 322.9,51.1 169.5,134.7 	"/>
	<path class="st0" d="M410.4,181.3v-105c0-27.8-25.2-47-50.4-42.6v420.8c25.2,4.4,50.4-14.8,50.4-42.6v-105
		c34.5-0.2,62.4-28.2,62.4-62.7C472.8,209.5,444.9,181.4,410.4,181.3z"/>
</g>
<g id="Capa_1">
	<line class="st1" x1="159" y1="393" x2="228.6" y2="451.7"/>
	<line class="st1" x1="112.4" y1="396.2" x2="140" y2="461.2"/>
	<line class="st1" x1="74.5" y1="399" x2="74.2" y2="456"/>
	<line class="st1" x1="159" y1="100.2" x2="228.6" y2="41.5"/>
	<line class="st1" x1="112.4" y1="97" x2="140" y2="32"/>
	<line class="st1" x1="74.5" y1="94.2" x2="74.2" y2="37.2"/>
</g>
</svg>
