<?xml version="1.0" encoding="utf-8"?>
<!-- Generator: Adobe Illustrator 26.0.3, SVG Export Plug-In . SVG Version: 6.00 Build 0)  -->
<svg version="1.1" id="Layer_1" xmlns="http://www.w3.org/2000/svg" xmlns:xlink="http://www.w3.org/1999/xlink" x="0px" y="0px"
	 viewBox="0 0 480 480" style="enable-background:new 0 0 480 480;" xml:space="preserve">
<style type="text/css">
	.st0{fill:#FC0606;}
</style>
<g id="Layer_1_00000094587844214457819890000008482980079277084828_">
	<path class="st0" d="M15.9,169.2v149.6c0,19.1,15.5,34.5,34.5,34.5H104V134.7H50.4C31.4,134.7,15.9,150.2,15.9,169.2z"/>
	<polygon class="st0" points="141,134.7 141,353.3 169.5,353.3 322.9,436.9 322.9,51.1 169.5,134.7 	"/>
	<path class="st0" d="M410.4,181.3v-105c0-27.8-25.2-47-50.4-42.6v420.8c25.2,4.4,50.4-14.8,50.4-42.6v-105
		c34.5-0.2,62.4-28.2,62.4-62.7C472.8,209.5,444.9,181.4,410.4,181.3z"/>
</g>
</svg>
