<?xml version="1.0" encoding="utf-8"?>
<!-- Generator: Adobe Illustrator 24.3.0, SVG Export Plug-In . SVG Version: 6.00 Build 0)  -->
<svg version="1.1" id="Layer_1" xmlns="http://www.w3.org/2000/svg" xmlns:xlink="http://www.w3.org/1999/xlink" x="0px" y="0px"
	 viewBox="0 0 50 50" style="enable-background:new 0 0 50 50;" xml:space="preserve">
<style type="text/css">
	.st0{fill:#FFFFFF;}
</style>
<g>
	<path class="st0" d="M47.52,11.03c-1.69,0.75-3.46,1.24-5.3,1.46c1.98-1.18,3.33-2.87,4.05-5.06c-1.84,1.05-3.79,1.77-5.88,2.14
		c-1.3-1.38-2.87-2.28-4.72-2.69c-1.85-0.41-3.65-0.27-5.42,0.43c-1.76,0.7-3.18,1.83-4.24,3.4s-1.6,3.3-1.6,5.19
		c-0.01,0.72,0.07,1.44,0.24,2.14c-3.71-0.18-7.23-1.11-10.54-2.78c-3.32-1.67-6.15-3.95-8.5-6.83c-0.59,1.02-0.97,2.11-1.14,3.27
		c-0.17,1.16-0.13,2.32,0.14,3.46c0.26,1.14,0.73,2.2,1.4,3.17s1.49,1.78,2.46,2.43c-1.49-0.05-2.88-0.44-4.18-1.16v0.11
		c0,1.07,0.18,2.11,0.54,3.11c0.36,1.01,0.88,1.92,1.55,2.75c0.68,0.83,1.47,1.52,2.39,2.07c0.92,0.55,1.9,0.93,2.94,1.14
		c-0.79,0.21-1.6,0.32-2.42,0.32c-0.58,0-1.16-0.06-1.74-0.17c0.6,1.88,1.69,3.41,3.26,4.59c1.58,1.18,3.35,1.8,5.32,1.85
		c-3.37,2.65-7.21,3.96-11.5,3.95c-0.72,0-1.43-0.05-2.14-0.13c4.31,2.77,9.03,4.16,14.15,4.16c1.73,0.01,3.44-0.15,5.14-0.48
		c1.7-0.33,3.35-0.82,4.95-1.48c1.6-0.66,3.12-1.46,4.56-2.42c1.44-0.96,2.77-2.05,3.99-3.27c1.22-1.22,2.31-2.55,3.27-3.99
		c0.96-1.44,1.77-2.96,2.42-4.56c0.66-1.6,1.15-3.25,1.48-4.95c0.33-1.7,0.49-3.41,0.48-5.14v-1.2
		C44.75,14.52,46.28,12.91,47.52,11.03"/>
</g>
</svg>
